<svg width="766" height="1288" viewBox="0 0 766 1288" fill="none" xmlns="http://www.w3.org/2000/svg">
<path d="M324.441 1178C205.441 1173 98.9414 1148.5 4.94141 1104.5L66.4414 897.5C106.441 918.5 149.441 934.5 195.441 945.5C242.441 956.5 285.441 963.5 324.441 966.5V756.5L301.941 750.5C204.941 723.5 130.441 683 78.4414 629C26.4414 574 0.44141 509.5 0.44141 435.5C0.44141 353.5 28.9414 286.5 85.9414 234.5C143.941 182.5 223.441 152 324.441 143V0.499908H451.941V143C547.941 151 640.441 175.5 729.441 216.5L651.441 417.5C601.441 384.5 534.941 363.5 451.941 354.5V555.5L469.941 560C563.941 584 636.441 623 687.441 677C739.441 730 765.441 793.5 765.441 867.5C765.441 954.5 737.941 1024.5 682.941 1077.5C628.941 1130.5 551.941 1163 451.941 1175V1287.5H324.441V1178ZM324.441 354.5C272.441 365.5 246.441 392 246.441 434C246.441 453 251.941 469 262.941 482C273.941 494 294.441 506 324.441 518V354.5ZM451.941 957.5C498.941 945.5 522.441 921.5 522.441 885.5C522.441 864.5 517.441 847.5 507.441 834.5C498.441 821.5 479.941 809.5 451.941 798.5V957.5Z" fill="#AD00FF"/>
</svg>
