<svg width="1802" height="1086" viewBox="0 0 1802 1086" fill="none" xmlns="http://www.w3.org/2000/svg">
<path d="M154.125 451.4C127.192 451.4 102.925 445 81.325 432.2C59.725 419.133 42.7917 401.4 30.525 379C18.2583 356.6 12.125 331.933 12.125 305C12.125 279.133 18.2583 255.4 30.525 233.8C43.0583 212.2 60.3917 195.133 82.525 182.6C104.658 170.067 129.858 163.8 158.125 163.8C173.592 163.8 188.525 165.533 202.925 169C217.592 172.467 230.792 177.4 242.525 183.8L216.125 245.8C197.992 238.333 181.058 234.6 165.325 234.6C144.792 234.6 128.925 241.267 117.725 254.6C106.525 267.667 100.925 284.867 100.925 306.2C100.925 320.067 103.458 332.6 108.525 343.8C113.592 354.733 120.658 363.4 129.725 369.8C139.058 376.2 149.592 379.4 161.325 379.4C167.725 379.4 173.058 378.867 177.325 377.8V313.4L246.525 305.4V430.6C216.392 444.467 185.592 451.4 154.125 451.4ZM289.797 169.8H482.997V230.6H386.997V280.6H474.597V331H386.997V384.2H482.997V445H289.797V169.8ZM277.797 86.6L318.197 15L435.397 97L410.997 139.8L277.797 86.6ZM736.088 451.4C685.954 451.4 655.288 428.2 644.088 381.8L634.088 340.6H615.288V445H527.688V169.8H648.888C671.821 169.8 691.954 173.267 709.288 180.2C726.888 186.867 740.488 196.333 750.088 208.6C759.688 220.867 764.488 235 764.488 251C764.488 268.867 760.088 283.933 751.288 296.2C742.754 308.2 729.421 318.067 711.288 325.8C713.154 335.933 715.288 345.133 717.688 353.4C720.888 363.533 725.288 370.6 730.888 374.6C736.488 378.6 744.621 380.6 755.288 380.6C759.021 380.6 764.888 380.067 772.888 379V444.2C760.354 449 748.088 451.4 736.088 451.4ZM630.488 284.6C650.221 284.6 664.088 282.467 672.088 278.2C680.354 273.667 684.488 266.067 684.488 255.4C684.488 246.333 681.154 239.8 674.488 235.8C667.821 231.533 657.288 229.4 642.888 229.4H615.288V284.6H630.488ZM806.984 169.8H1000.18V230.6H904.184V280.6H991.784V331H904.184V384.2H1000.18V445H806.984V169.8Z" fill="white"/>
<path d="M1165.07 230.6H1107.87V169.8H1315.47V230.6H1258.27V445H1165.07V230.6ZM1353.13 169.8H1546.33V230.6H1450.33V280.6H1537.93V331H1450.33V384.2H1546.33V445H1353.13V169.8ZM1676.22 451.4C1638.62 451.4 1606.88 444.467 1581.02 430.6L1601.02 368.6C1628.48 378.467 1653.02 383.4 1674.62 383.4C1686.35 383.4 1694.88 382.067 1700.22 379.4C1705.82 376.467 1708.62 372.2 1708.62 366.6C1708.62 362.867 1707.15 359.667 1704.22 357C1701.28 354.067 1695.42 350.867 1686.62 347.4C1677.82 343.933 1664.62 339.667 1647.02 334.6C1625.42 328.2 1608.62 317.8 1596.62 303.4C1584.62 288.733 1578.62 271.933 1578.62 253C1578.62 223.667 1588.22 201.533 1607.42 186.6C1626.88 171.4 1653.02 163.8 1685.82 163.8C1702.88 163.8 1719.68 165.667 1736.22 169.4C1752.75 172.867 1767.42 178.067 1780.22 185L1758.62 245.4C1743.68 240.333 1730.62 236.733 1719.42 234.6C1708.48 232.2 1697.82 231 1687.42 231C1669.82 231 1661.02 235.8 1661.02 245.4C1661.02 250.2 1663.82 254.333 1669.42 257.8C1675.28 261 1687.15 265.133 1705.02 270.2C1733.02 277.667 1754.22 289.133 1768.62 304.6C1783.02 319.8 1790.22 338.067 1790.22 359.4C1790.22 389 1780.62 411.8 1761.42 427.8C1742.22 443.533 1713.82 451.4 1676.22 451.4Z" fill="white"/>
<path d="M79.2141 579.6H22.0141V518.8H229.614V579.6H172.414V794H79.2141V579.6ZM295.273 518.8H385.273V628.4H470.473V518.8H560.873V794H470.473V686H385.273V794H295.273V518.8ZM774.452 800.4C748.052 800.4 724.452 795.333 703.652 785.2C683.118 775.067 667.118 760.933 655.652 742.8C644.185 724.4 638.452 703.467 638.452 680V518.8H728.852V680C728.852 696 732.718 708 740.452 716C748.185 724 759.518 728 774.452 728C789.385 728 800.718 724 808.452 716C816.185 707.733 820.052 695.733 820.052 680V518.8H910.452V680C910.452 703.467 904.718 724.4 893.252 742.8C881.785 760.933 865.652 775.067 844.852 785.2C824.318 795.333 800.852 800.4 774.452 800.4ZM987.992 518.8H1068.39L1177.99 667.2V518.8H1249.59V794H1169.59L1059.19 650.8V794H987.992V518.8ZM1329.66 518.8H1522.86V579.6H1426.86V629.6H1514.46V680H1426.86V733.2H1522.86V794H1329.66V518.8ZM1671.95 798.8C1640.22 797.467 1611.82 790.933 1586.75 779.2L1603.15 724C1613.82 729.6 1625.29 733.867 1637.55 736.8C1650.09 739.733 1661.55 741.6 1671.95 742.4V686.4L1665.95 684.8C1640.09 677.6 1620.22 666.8 1606.35 652.4C1592.49 637.733 1585.55 620.533 1585.55 600.8C1585.55 578.933 1593.15 561.067 1608.35 547.2C1623.82 533.333 1645.02 525.2 1671.95 522.8V484.8H1705.95V522.8C1731.55 524.933 1756.22 531.467 1779.95 542.4L1759.15 596C1745.82 587.2 1728.09 581.6 1705.95 579.2V632.8L1710.75 634C1735.82 640.4 1755.15 650.8 1768.75 665.2C1782.62 679.333 1789.55 696.267 1789.55 716C1789.55 739.2 1782.22 757.867 1767.55 772C1753.15 786.133 1732.62 794.8 1705.95 798V828H1671.95V798.8ZM1671.95 579.2C1658.09 582.133 1651.15 589.2 1651.15 600.4C1651.15 605.467 1652.62 609.733 1655.55 613.2C1658.49 616.4 1663.95 619.6 1671.95 622.8V579.2ZM1705.95 740C1718.49 736.8 1724.75 730.4 1724.75 720.8C1724.75 715.2 1723.42 710.667 1720.75 707.2C1718.35 703.733 1713.42 700.533 1705.95 697.6V740Z" fill="#AD00FF"/>
<path d="M359.776 1028.2V1045H276.376V906.4H295.776V1028.2H359.776ZM428.087 1031.6C432.487 1031.6 436.353 1031.53 439.687 1031.4C443.153 1031.13 446.02 1030.73 448.287 1030.2V999.2C446.953 998.533 444.753 998 441.687 997.6C438.753 997.067 435.153 996.8 430.887 996.8C428.087 996.8 425.087 997 421.887 997.4C418.82 997.8 415.953 998.667 413.287 1000C410.753 1001.2 408.62 1002.93 406.887 1005.2C405.153 1007.33 404.287 1010.2 404.287 1013.8C404.287 1020.47 406.42 1025.13 410.687 1027.8C414.953 1030.33 420.753 1031.6 428.087 1031.6ZM426.487 938.4C433.953 938.4 440.22 939.4 445.287 941.4C450.487 943.267 454.62 946 457.687 949.6C460.887 953.067 463.153 957.267 464.487 962.2C465.82 967 466.487 972.333 466.487 978.2V1043.2C464.887 1043.47 462.62 1043.87 459.687 1044.4C456.887 1044.8 453.687 1045.2 450.087 1045.6C446.487 1046 442.553 1046.33 438.287 1046.6C434.153 1047 430.02 1047.2 425.887 1047.2C420.02 1047.2 414.62 1046.6 409.687 1045.4C404.753 1044.2 400.487 1042.33 396.887 1039.8C393.287 1037.13 390.487 1033.67 388.487 1029.4C386.487 1025.13 385.487 1020 385.487 1014C385.487 1008.27 386.62 1003.33 388.887 999.2C391.287 995.067 394.487 991.733 398.487 989.2C402.487 986.667 407.153 984.8 412.487 983.6C417.82 982.4 423.42 981.8 429.287 981.8C431.153 981.8 433.087 981.933 435.087 982.2C437.087 982.333 438.953 982.6 440.687 983C442.553 983.267 444.153 983.533 445.487 983.8C446.82 984.067 447.753 984.267 448.287 984.4V979.2C448.287 976.133 447.953 973.133 447.287 970.2C446.62 967.133 445.42 964.467 443.687 962.2C441.953 959.8 439.553 957.933 436.487 956.6C433.553 955.133 429.687 954.4 424.887 954.4C418.753 954.4 413.353 954.867 408.687 955.8C404.153 956.6 400.753 957.467 398.487 958.4L396.287 943C398.687 941.933 402.687 940.933 408.287 940C413.887 938.933 419.953 938.4 426.487 938.4ZM656.668 1045C652.935 1035.4 648.935 1024.47 644.668 1012.2C640.535 999.8 636.735 986.933 633.268 973.6C629.801 986.933 626.001 999.8 621.868 1012.2C617.735 1024.47 613.801 1035.4 610.068 1045H593.868C587.735 1031.27 581.735 1015.6 575.868 998C570.001 980.4 564.468 961.4 559.268 941H579.268C580.601 947.267 582.201 954.067 584.068 961.4C585.935 968.733 587.868 976.067 589.868 983.4C592.001 990.733 594.201 997.8 596.468 1004.6C598.735 1011.4 600.868 1017.33 602.868 1022.4C605.135 1016.13 607.335 1009.53 609.468 1002.6C611.735 995.533 613.868 988.467 615.868 981.4C617.868 974.2 619.735 967.2 621.468 960.4C623.335 953.467 624.935 947 626.268 941H641.668C642.868 947 644.335 953.467 646.068 960.4C647.801 967.2 649.668 974.2 651.668 981.4C653.668 988.467 655.735 995.533 657.868 1002.6C660.135 1009.53 662.401 1016.13 664.668 1022.4C666.668 1017.33 668.735 1011.4 670.868 1004.6C673.135 997.8 675.335 990.733 677.468 983.4C679.601 976.067 681.601 968.733 683.468 961.4C685.335 954.067 686.935 947.267 688.268 941H707.468C702.268 961.4 696.735 980.4 690.868 998C685.001 1015.6 679.001 1031.27 672.868 1045H656.668ZM735.337 993.2C735.337 984 736.67 976 739.337 969.2C742.003 962.267 745.537 956.533 749.937 952C754.337 947.467 759.403 944.067 765.137 941.8C770.87 939.533 776.737 938.4 782.737 938.4C796.737 938.4 807.47 942.8 814.937 951.6C822.403 960.267 826.137 973.533 826.137 991.4C826.137 992.2 826.137 993.267 826.137 994.6C826.137 995.8 826.07 996.933 825.937 998H754.737C755.537 1008.8 758.67 1017 764.137 1022.6C769.603 1028.2 778.137 1031 789.737 1031C796.27 1031 801.737 1030.47 806.137 1029.4C810.67 1028.2 814.07 1027.07 816.337 1026L818.937 1041.6C816.67 1042.8 812.67 1044.07 806.937 1045.4C801.337 1046.73 794.937 1047.4 787.737 1047.4C778.67 1047.4 770.803 1046.07 764.137 1043.4C757.603 1040.6 752.203 1036.8 747.937 1032C743.67 1027.2 740.47 1021.53 738.337 1015C736.337 1008.33 735.337 1001.07 735.337 993.2ZM806.737 983C806.87 974.6 804.737 967.733 800.337 962.4C796.07 956.933 790.137 954.2 782.537 954.2C778.27 954.2 774.47 955.067 771.137 956.8C767.937 958.4 765.203 960.533 762.937 963.2C760.67 965.867 758.87 968.933 757.537 972.4C756.337 975.867 755.537 979.4 755.137 983H806.737ZM885.455 945.6C887.722 944.133 891.122 942.6 895.655 941C900.322 939.4 905.655 938.6 911.655 938.6C919.122 938.6 925.722 939.933 931.455 942.6C937.322 945.267 942.255 949 946.255 953.8C950.255 958.6 953.255 964.333 955.255 971C957.389 977.667 958.455 985 958.455 993C958.455 1001.4 957.189 1009 954.655 1015.8C952.255 1022.47 948.789 1028.13 944.255 1032.8C939.722 1037.47 934.255 1041.07 927.855 1043.6C921.455 1046.13 914.255 1047.4 906.255 1047.4C897.589 1047.4 889.922 1046.8 883.255 1045.6C876.589 1044.4 871.122 1043.2 866.855 1042V893L885.455 889.8V945.6ZM885.455 1028.8C887.322 1029.33 889.922 1029.87 893.255 1030.4C896.722 1030.8 900.989 1031 906.055 1031C916.055 1031 924.055 1027.73 930.055 1021.2C936.055 1014.53 939.055 1005.13 939.055 993C939.055 987.667 938.522 982.667 937.455 978C936.389 973.333 934.655 969.333 932.255 966C929.855 962.533 926.722 959.867 922.855 958C919.122 956 914.589 955 909.255 955C904.189 955 899.522 955.867 895.255 957.6C890.989 959.333 887.722 961.133 885.455 963V1028.8ZM987.829 976.4H1037.23V993.8H987.829V976.4ZM1096.59 1031.6C1104.19 1031.6 1109.79 1030.6 1113.39 1028.6C1117.13 1026.6 1118.99 1023.4 1118.99 1019C1118.99 1014.47 1117.19 1010.87 1113.59 1008.2C1109.99 1005.53 1104.06 1002.53 1095.79 999.2C1091.79 997.6 1087.93 996 1084.19 994.4C1080.59 992.667 1077.46 990.667 1074.79 988.4C1072.13 986.133 1069.99 983.4 1068.39 980.2C1066.79 977 1065.99 973.067 1065.99 968.4C1065.99 959.2 1069.39 951.933 1076.19 946.6C1082.99 941.133 1092.26 938.4 1103.99 938.4C1106.93 938.4 1109.86 938.6 1112.79 939C1115.73 939.267 1118.46 939.667 1120.99 940.2C1123.53 940.6 1125.73 941.067 1127.59 941.6C1129.59 942.133 1131.13 942.6 1132.19 943L1128.79 959C1126.79 957.933 1123.66 956.867 1119.39 955.8C1115.13 954.6 1109.99 954 1103.99 954C1098.79 954 1094.26 955.067 1090.39 957.2C1086.53 959.2 1084.59 962.4 1084.59 966.8C1084.59 969.067 1084.99 971.067 1085.79 972.8C1086.73 974.533 1088.06 976.133 1089.79 977.6C1091.66 978.933 1093.93 980.2 1096.59 981.4C1099.26 982.6 1102.46 983.867 1106.19 985.2C1111.13 987.067 1115.53 988.933 1119.39 990.8C1123.26 992.533 1126.53 994.6 1129.19 997C1131.99 999.4 1134.13 1002.33 1135.59 1005.8C1137.06 1009.13 1137.79 1013.27 1137.79 1018.2C1137.79 1027.8 1134.19 1035.07 1126.99 1040C1119.93 1044.93 1109.79 1047.4 1096.59 1047.4C1087.39 1047.4 1080.19 1046.6 1074.99 1045C1069.79 1043.53 1066.26 1042.4 1064.39 1041.6L1067.79 1025.6C1069.93 1026.4 1073.33 1027.6 1077.99 1029.2C1082.66 1030.8 1088.86 1031.6 1096.59 1031.6ZM1169.85 993.2C1169.85 984 1171.19 976 1173.85 969.2C1176.52 962.267 1180.05 956.533 1184.45 952C1188.85 947.467 1193.92 944.067 1199.65 941.8C1205.39 939.533 1211.25 938.4 1217.25 938.4C1231.25 938.4 1241.99 942.8 1249.45 951.6C1256.92 960.267 1260.65 973.533 1260.65 991.4C1260.65 992.2 1260.65 993.267 1260.65 994.6C1260.65 995.8 1260.59 996.933 1260.45 998H1189.25C1190.05 1008.8 1193.19 1017 1198.65 1022.6C1204.12 1028.2 1212.65 1031 1224.25 1031C1230.79 1031 1236.25 1030.47 1240.65 1029.4C1245.19 1028.2 1248.59 1027.07 1250.85 1026L1253.45 1041.6C1251.19 1042.8 1247.19 1044.07 1241.45 1045.4C1235.85 1046.73 1229.45 1047.4 1222.25 1047.4C1213.19 1047.4 1205.32 1046.07 1198.65 1043.4C1192.12 1040.6 1186.72 1036.8 1182.45 1032C1178.19 1027.2 1174.99 1021.53 1172.85 1015C1170.85 1008.33 1169.85 1001.07 1169.85 993.2ZM1241.25 983C1241.39 974.6 1239.25 967.733 1234.85 962.4C1230.59 956.933 1224.65 954.2 1217.05 954.2C1212.79 954.2 1208.99 955.067 1205.65 956.8C1202.45 958.4 1199.72 960.533 1197.45 963.2C1195.19 965.867 1193.39 968.933 1192.05 972.4C1190.85 975.867 1190.05 979.4 1189.65 983H1241.25ZM1241.05 901.6L1212.85 929L1203.45 920.6L1229.05 889.8L1241.05 901.6ZM1339.77 938.8C1341.37 938.8 1343.17 938.933 1345.17 939.2C1347.3 939.333 1349.37 939.6 1351.37 940C1353.37 940.267 1355.17 940.6 1356.77 941C1358.5 941.267 1359.77 941.533 1360.57 941.8L1357.37 958C1355.9 957.467 1353.44 956.867 1349.97 956.2C1346.64 955.4 1342.3 955 1336.97 955C1333.5 955 1330.04 955.4 1326.57 956.2C1323.24 956.867 1321.04 957.333 1319.97 957.6V1045H1301.37V945.4C1305.77 943.8 1311.24 942.333 1317.77 941C1324.3 939.533 1331.64 938.8 1339.77 938.8ZM1411.12 1045H1392.52V941H1411.12V1045ZM1401.72 922.2C1398.39 922.2 1395.52 921.133 1393.12 919C1390.85 916.733 1389.72 913.733 1389.72 910C1389.72 906.267 1390.85 903.333 1393.12 901.2C1395.52 898.933 1398.39 897.8 1401.72 897.8C1405.05 897.8 1407.85 898.933 1410.12 901.2C1412.52 903.333 1413.72 906.267 1413.72 910C1413.72 913.733 1412.52 916.733 1410.12 919C1407.85 921.133 1405.05 922.2 1401.72 922.2ZM1451.31 993.2C1451.31 984 1452.64 976 1455.31 969.2C1457.97 962.267 1461.51 956.533 1465.91 952C1470.31 947.467 1475.37 944.067 1481.11 941.8C1486.84 939.533 1492.71 938.4 1498.71 938.4C1512.71 938.4 1523.44 942.8 1530.91 951.6C1538.37 960.267 1542.11 973.533 1542.11 991.4C1542.11 992.2 1542.11 993.267 1542.11 994.6C1542.11 995.8 1542.04 996.933 1541.91 998H1470.71C1471.51 1008.8 1474.64 1017 1480.11 1022.6C1485.57 1028.2 1494.11 1031 1505.71 1031C1512.24 1031 1517.71 1030.47 1522.11 1029.4C1526.64 1028.2 1530.04 1027.07 1532.31 1026L1534.91 1041.6C1532.64 1042.8 1528.64 1044.07 1522.91 1045.4C1517.31 1046.73 1510.91 1047.4 1503.71 1047.4C1494.64 1047.4 1486.77 1046.07 1480.11 1043.4C1473.57 1040.6 1468.17 1036.8 1463.91 1032C1459.64 1027.2 1456.44 1021.53 1454.31 1015C1452.31 1008.33 1451.31 1001.07 1451.31 993.2ZM1522.71 983C1522.84 974.6 1520.71 967.733 1516.31 962.4C1512.04 956.933 1506.11 954.2 1498.51 954.2C1494.24 954.2 1490.44 955.067 1487.11 956.8C1483.91 958.4 1481.17 960.533 1478.91 963.2C1476.64 965.867 1474.84 968.933 1473.51 972.4C1472.31 975.867 1471.51 979.4 1471.11 983H1522.71Z" fill="white"/>
</svg>
