<svg width="681" height="418" viewBox="0 0 681 418" fill="none" xmlns="http://www.w3.org/2000/svg">
<path d="M54.3249 177C44.0212 177 34.7373 174.404 26.4738 169.213C18.2103 163.913 11.7322 156.72 7.03928 147.635C2.34642 138.55 0 128.545 0 117.621C0 107.13 2.34642 97.5041 7.03928 88.7434C11.8341 79.9826 18.4654 73.0604 26.9329 67.9771C35.4003 62.8938 45.0411 60.352 55.8552 60.352C61.7724 60.352 67.4853 61.0549 72.9943 62.461C78.6055 63.8672 83.6554 65.868 88.1441 68.4638L78.0442 93.6105C71.1071 90.5819 64.6287 89.0678 58.6097 89.0678C50.7544 89.0678 44.6842 91.7719 40.3994 97.1797C36.1146 102.48 33.9722 109.456 33.9722 118.108C33.9722 123.733 34.9412 128.816 36.8797 133.358C38.8182 137.793 41.5214 141.308 44.9902 143.904C48.5607 146.5 52.5907 147.797 57.0794 147.797C59.5279 147.797 61.5681 147.581 63.2005 147.148V121.028L89.6744 117.784V168.564C78.1464 174.188 66.3632 177 54.3249 177ZM106.229 62.7855H180.141V87.4455H143.415V107.725H176.928V128.167H143.415V149.744H180.141V174.404H106.229V62.7855ZM101.638 29.0403L117.094 0L161.931 33.2585L152.596 50.6178L101.638 29.0403ZM276.966 177C257.787 177 246.055 167.59 241.77 148.771L237.944 132.061H230.752V174.404H197.239V62.7855H243.606C252.38 62.7855 260.082 64.1917 266.714 67.0037C273.447 69.7077 278.65 73.5471 282.322 78.5225C285.995 83.4979 287.831 89.2301 287.831 95.7195C287.831 102.966 286.148 109.077 282.781 114.052C279.517 118.919 274.416 122.921 267.479 126.058C268.193 130.168 269.009 133.899 269.927 137.252C271.151 141.362 272.835 144.228 274.977 145.851C277.119 147.473 280.231 148.284 284.312 148.284C285.74 148.284 287.984 148.068 291.045 147.635V174.08C286.25 176.027 281.557 177 276.966 177ZM236.567 109.347C244.116 109.347 249.421 108.482 252.482 106.752C255.644 104.913 257.226 101.831 257.226 97.5041C257.226 93.8266 255.95 91.1769 253.4 89.5545C250.849 87.8239 246.82 86.9588 241.311 86.9588H230.752V109.347H236.567ZM304.089 62.7855H378V87.4455H341.275V107.725H374.788V128.167H341.275V149.744H378V174.404H304.089V62.7855Z" fill="white"/>
<path d="M441.879 87.1752H420V62.4409H499.407V87.1752H477.528V174.396H441.879V87.1752ZM513.812 62.4409H587.712V87.1752H550.992V107.516H584.499V128.019H550.992V149.662H587.712V174.396H513.812V62.4409ZM637.395 177C623.013 177 610.872 174.18 600.981 168.538L608.631 143.316C619.134 147.33 628.521 149.337 636.783 149.337C641.27 149.337 644.532 148.794 646.575 147.709C648.717 146.516 649.788 144.78 649.788 142.502C649.788 140.983 649.226 139.682 648.105 138.597C646.98 137.403 644.739 136.102 641.373 134.691C638.007 133.281 632.958 131.545 626.226 129.484C617.964 126.88 611.538 122.65 606.948 116.791C602.358 110.825 600.063 103.99 600.063 96.2879C600.063 84.3548 603.735 75.3504 611.079 69.2754C618.522 63.0918 628.521 60 641.067 60C647.592 60 654.018 60.7595 660.345 62.2782C666.668 63.6886 672.279 65.804 677.175 68.6245L668.913 93.1961C663.198 91.1348 658.203 89.6702 653.919 88.8025C649.734 87.8262 645.657 87.338 641.679 87.338C634.947 87.338 631.581 89.2907 631.581 93.1961C631.581 95.1488 632.652 96.8302 634.794 98.2406C637.035 99.5424 641.576 101.224 648.411 103.285C659.121 106.323 667.23 110.987 672.738 117.28C678.246 123.463 681 130.894 681 139.573C681 151.615 677.328 160.89 669.984 167.399C662.64 173.8 651.777 177 637.395 177Z" fill="white"/>
<path d="M25.9087 228.395H4V203.77H83.5147V228.395H61.606V315.23H25.9087V228.395ZM108.663 203.77H143.135V248.16H175.768V203.77H210.393V315.23H175.768V271.488H143.135V315.23H108.663V203.77ZM292.198 317.822C282.086 317.822 273.047 315.769 265.08 311.666C257.215 307.562 251.087 301.837 246.695 294.493C242.303 287.041 240.107 278.563 240.107 269.058V203.77H274.732V269.058C274.732 275.538 276.213 280.399 279.175 283.639C282.137 286.879 286.478 288.499 292.198 288.499C297.918 288.499 302.258 286.879 305.221 283.639C308.183 280.29 309.664 275.43 309.664 269.058V203.77H344.289V269.058C344.289 278.563 342.092 287.041 337.701 294.493C333.309 301.837 327.129 307.562 319.163 311.666C311.298 315.769 302.31 317.822 292.198 317.822ZM373.988 203.77H404.782L446.761 263.874V203.77H474.185V315.23H443.543L401.258 257.232V315.23H373.988V203.77ZM504.853 203.77H578.853V228.395H542.083V248.646H575.635V269.058H542.083V290.605H578.853V315.23H504.853V203.77ZM635.957 317.174C623.804 316.634 612.926 313.987 603.324 309.235L609.605 286.879C613.692 289.147 618.085 290.875 622.781 292.063C627.584 293.251 631.974 294.007 635.957 294.331V271.65L633.659 271.002C623.754 268.086 616.143 263.712 610.831 257.88C605.522 251.94 602.864 244.973 602.864 236.981C602.864 228.125 605.775 220.889 611.597 215.273C617.522 209.656 625.642 206.362 635.957 205.39V190H648.98V205.39C658.785 206.254 668.234 208.901 677.323 213.329L669.356 235.037C664.251 231.473 657.46 229.205 648.98 228.233V249.942L650.818 250.428C660.42 253.02 667.824 257.232 673.033 263.064C678.346 268.788 681 275.647 681 283.639C681 293.035 678.192 300.595 672.574 306.319C667.058 312.043 659.195 315.554 648.98 316.85V329H635.957V317.174ZM635.957 228.233C630.648 229.421 627.99 232.283 627.99 236.819C627.99 238.872 628.553 240.599 629.675 242.004C630.802 243.3 632.893 244.596 635.957 245.892V228.233ZM648.98 293.359C653.783 292.063 656.18 289.471 656.18 285.583C656.18 283.315 655.671 281.479 654.648 280.075C653.729 278.67 651.841 277.374 648.98 276.186V293.359Z" fill="black"/>
<path d="M132.957 410.203V417.025H101V360.741H108.434V410.203H132.957ZM159.132 411.584C160.818 411.584 162.299 411.555 163.577 411.503C164.905 411.393 166.004 411.23 166.872 411.015V398.426C166.361 398.156 165.518 397.939 164.343 397.777C163.219 397.56 161.84 397.452 160.205 397.452C159.132 397.452 157.983 397.533 156.756 397.695C155.581 397.858 154.483 398.21 153.461 398.751C152.49 399.239 151.673 399.941 151.009 400.863C150.344 401.728 150.013 402.893 150.013 404.355C150.013 407.064 150.83 408.956 152.465 410.041C154.1 411.068 156.322 411.584 159.132 411.584ZM158.519 373.736C161.38 373.736 163.781 374.142 165.723 374.954C167.715 375.712 169.299 376.822 170.474 378.284C171.7 379.692 172.569 381.398 173.08 383.401C173.591 385.35 173.846 387.516 173.846 389.898V416.294C173.233 416.404 172.364 416.566 171.241 416.782C170.168 416.944 168.941 417.107 167.562 417.269C166.183 417.431 164.675 417.565 163.041 417.675C161.456 417.838 159.873 417.919 158.289 417.919C156.041 417.919 153.972 417.675 152.082 417.188C150.191 416.701 148.556 415.941 147.177 414.914C145.798 413.829 144.725 412.424 143.958 410.69C143.192 408.956 142.809 406.873 142.809 404.437C142.809 402.11 143.243 400.104 144.112 398.426C145.031 396.748 146.257 395.394 147.79 394.365C149.323 393.337 151.111 392.579 153.155 392.091C155.198 391.604 157.344 391.36 159.592 391.36C160.307 391.36 161.048 391.414 161.814 391.523C162.581 391.577 163.296 391.685 163.96 391.848C164.675 391.956 165.288 392.064 165.799 392.173C166.31 392.281 166.668 392.362 166.872 392.416V390.305C166.872 389.059 166.744 387.841 166.489 386.65C166.234 385.404 165.774 384.322 165.11 383.401C164.445 382.426 163.526 381.668 162.351 381.127C161.227 380.531 159.745 380.234 157.906 380.234C155.556 380.234 153.486 380.423 151.699 380.802C149.961 381.127 148.658 381.479 147.79 381.858L146.947 375.604C147.867 375.171 149.399 374.765 151.545 374.386C153.691 373.952 156.015 373.736 158.519 373.736ZM246.719 417.025C245.289 413.127 243.756 408.688 242.121 403.706C240.537 398.67 239.081 393.445 237.753 388.03C236.424 393.445 234.968 398.67 233.385 403.706C231.801 408.688 230.293 413.127 228.863 417.025H222.656C220.306 411.45 218.006 405.086 215.758 397.939C213.51 390.792 211.39 383.076 209.398 374.792H217.061C217.572 377.337 218.185 380.098 218.9 383.076C219.616 386.054 220.357 389.032 221.123 392.01C221.94 394.988 222.783 397.858 223.652 400.619C224.521 403.381 225.338 405.789 226.104 407.848C226.973 405.302 227.816 402.621 228.633 399.807C229.502 396.937 230.319 394.068 231.085 391.198C231.852 388.274 232.567 385.431 233.231 382.67C233.947 379.855 234.56 377.228 235.071 374.792H240.971C241.431 377.228 241.993 379.855 242.657 382.67C243.321 385.431 244.037 388.274 244.803 391.198C245.57 394.068 246.362 396.937 247.179 399.807C248.048 402.621 248.916 405.302 249.785 407.848C250.551 405.789 251.343 403.381 252.16 400.619C253.029 397.858 253.872 394.988 254.689 392.01C255.506 389.032 256.273 386.054 256.988 383.076C257.704 380.098 258.317 377.337 258.827 374.792H266.184C264.192 383.076 262.072 390.792 259.824 397.939C257.576 405.086 255.277 411.45 252.927 417.025H246.719ZM276.863 395.99C276.863 392.254 277.374 389.005 278.396 386.244C279.417 383.428 280.772 381.1 282.458 379.259C284.144 377.418 286.085 376.037 288.282 375.117C290.479 374.196 292.727 373.736 295.026 373.736C300.39 373.736 304.503 375.523 307.364 379.096C310.225 382.616 311.656 388.003 311.656 395.259C311.656 395.584 311.656 396.017 311.656 396.558C311.656 397.046 311.63 397.506 311.579 397.939H284.297C284.603 402.325 285.804 405.655 287.899 407.929C289.993 410.203 293.263 411.34 297.708 411.34C300.211 411.34 302.306 411.125 303.992 410.69C305.729 410.203 307.032 409.744 307.901 409.31L308.897 415.645C308.028 416.132 306.495 416.648 304.299 417.188C302.153 417.728 299.701 418 296.942 418C293.467 418 290.453 417.46 287.899 416.376C285.395 415.239 283.326 413.695 281.691 411.746C280.056 409.797 278.83 407.494 278.013 404.843C277.246 402.134 276.863 399.186 276.863 395.99ZM304.222 391.848C304.273 388.437 303.456 385.648 301.77 383.482C300.135 381.262 297.861 380.152 294.949 380.152C293.314 380.152 291.858 380.504 290.581 381.208C289.355 381.858 288.307 382.724 287.439 383.807C286.57 384.89 285.881 386.135 285.37 387.543C284.91 388.951 284.603 390.386 284.45 391.848H304.222ZM334.385 376.66C335.254 376.064 336.556 375.442 338.293 374.792C340.082 374.142 342.125 373.817 344.424 373.817C347.285 373.817 349.814 374.359 352.011 375.442C354.259 376.525 356.149 378.041 357.682 379.99C359.215 381.939 360.364 384.267 361.131 386.975C361.948 389.682 362.357 392.66 362.357 395.909C362.357 399.32 361.872 402.406 360.901 405.168C359.981 407.876 358.653 410.175 356.916 412.071C355.179 413.968 353.084 415.429 350.632 416.457C348.179 417.484 345.42 418 342.355 418C339.034 418 336.097 417.756 333.542 417.269C330.988 416.782 328.893 416.294 327.258 415.807V355.299L334.385 354V376.66ZM334.385 410.447C335.1 410.662 336.097 410.881 337.374 411.096C338.702 411.259 340.337 411.34 342.278 411.34C346.11 411.34 349.176 410.012 351.475 407.36C353.774 404.652 354.923 400.835 354.923 395.909C354.923 393.743 354.719 391.712 354.31 389.817C353.902 387.922 353.237 386.298 352.318 384.944C351.398 383.536 350.198 382.454 348.716 381.695C347.285 380.883 345.548 380.477 343.505 380.477C341.563 380.477 339.775 380.829 338.14 381.533C336.505 382.237 335.254 382.968 334.385 383.726V410.447ZM373.612 389.168H392.542V396.233H373.612V389.168ZM415.287 411.584C418.199 411.584 420.345 411.178 421.724 410.365C423.157 409.553 423.87 408.254 423.87 406.467C423.87 404.627 423.18 403.165 421.801 402.081C420.422 400.997 418.149 399.779 414.981 398.426C413.448 397.777 411.969 397.127 410.536 396.477C409.156 395.773 407.957 394.961 406.934 394.041C405.915 393.12 405.095 392.01 404.481 390.711C403.868 389.411 403.562 387.814 403.562 385.919C403.562 382.183 404.865 379.232 407.47 377.066C410.076 374.846 413.628 373.736 418.123 373.736C419.249 373.736 420.372 373.817 421.495 373.98C422.621 374.088 423.667 374.251 424.637 374.467C425.61 374.629 426.453 374.819 427.166 375.036C427.932 375.252 428.522 375.442 428.928 375.604L427.625 382.102C426.859 381.668 425.66 381.235 424.023 380.802C422.391 380.315 420.422 380.071 418.123 380.071C416.13 380.071 414.394 380.504 412.911 381.371C411.432 382.183 410.689 383.482 410.689 385.269C410.689 386.19 410.842 387.002 411.149 387.706C411.509 388.409 412.019 389.059 412.681 389.655C413.398 390.196 414.268 390.711 415.287 391.198C416.31 391.685 417.536 392.2 418.966 392.741C420.858 393.499 422.544 394.257 424.023 395.015C425.506 395.719 426.759 396.558 427.779 397.533C428.851 398.508 429.671 399.697 430.231 401.107C430.794 402.459 431.074 404.14 431.074 406.142C431.074 410.041 429.694 412.993 426.936 414.995C424.23 416.997 420.345 418 415.287 418C411.762 418 409.003 417.675 407.01 417.025C405.018 416.428 403.665 415.97 402.949 415.645L404.252 409.147C405.072 409.472 406.374 409.959 408.16 410.609C409.949 411.259 412.325 411.584 415.287 411.584ZM443.359 395.99C443.359 392.254 443.872 389.005 444.891 386.244C445.914 383.428 447.267 381.1 448.953 379.259C450.639 377.418 452.582 376.037 454.777 375.117C456.977 374.196 459.222 373.736 461.521 373.736C466.886 373.736 471.001 375.523 473.859 379.096C476.722 382.616 478.151 388.003 478.151 395.259C478.151 395.584 478.151 396.017 478.151 396.558C478.151 397.046 478.128 397.506 478.074 397.939H450.792C451.099 402.325 452.302 405.655 454.394 407.929C456.49 410.203 459.759 411.34 464.203 411.34C466.709 411.34 468.802 411.125 470.488 410.69C472.227 410.203 473.53 409.744 474.396 409.31L475.392 415.645C474.526 416.132 472.993 416.648 470.794 417.188C468.648 417.728 466.196 418 463.437 418C459.965 418 456.95 417.46 454.394 416.376C451.892 415.239 449.823 413.695 448.187 411.746C446.554 409.797 445.328 407.494 444.508 404.843C443.742 402.134 443.359 399.186 443.359 395.99ZM470.717 391.848C470.771 388.437 469.951 385.648 468.265 383.482C466.633 381.262 464.357 380.152 461.445 380.152C459.812 380.152 458.356 380.504 457.076 381.208C455.85 381.858 454.804 382.724 453.934 383.807C453.068 384.89 452.379 386.135 451.865 387.543C451.405 388.951 451.099 390.386 450.945 391.848H470.717ZM470.641 358.792L459.835 369.919L456.233 366.508L466.043 354L470.641 358.792ZM508.468 373.898C509.081 373.898 509.771 373.952 510.537 374.061C511.353 374.115 512.146 374.223 512.913 374.386C513.679 374.494 514.369 374.629 514.982 374.792C515.645 374.9 516.132 375.008 516.438 375.117L515.212 381.695C514.649 381.479 513.706 381.235 512.376 380.964C511.1 380.64 509.437 380.477 507.395 380.477C506.065 380.477 504.74 380.64 503.41 380.964C502.134 381.235 501.291 381.425 500.881 381.533V417.025H493.754V376.579C495.44 375.929 497.536 375.333 500.038 374.792C502.54 374.196 505.353 373.898 508.468 373.898ZM535.808 417.025H528.681V374.792H535.808V417.025ZM532.206 367.157C530.93 367.157 529.83 366.724 528.91 365.858C528.041 364.937 527.608 363.719 527.608 362.203C527.608 360.687 528.041 359.496 528.91 358.629C529.83 357.709 530.93 357.249 532.206 357.249C533.482 357.249 534.555 357.709 535.424 358.629C536.344 359.496 536.804 360.687 536.804 362.203C536.804 363.719 536.344 364.937 535.424 365.858C534.555 366.724 533.482 367.157 532.206 367.157ZM551.208 395.99C551.208 392.254 551.717 389.005 552.74 386.244C553.76 383.428 555.116 381.1 556.802 379.259C558.488 377.418 560.427 376.037 562.626 375.117C564.822 374.196 567.071 373.736 569.37 373.736C574.735 373.736 578.846 375.523 581.708 379.096C584.567 382.616 586 388.003 586 395.259C586 395.584 586 396.017 586 396.558C586 397.046 585.973 397.506 585.923 397.939H558.641C558.948 402.325 560.147 405.655 562.243 407.929C564.335 410.203 567.607 411.34 572.052 411.34C574.554 411.34 576.65 411.125 578.336 410.69C580.072 410.203 581.375 409.744 582.245 409.31L583.241 415.645C582.371 416.132 580.839 416.648 578.643 417.188C576.497 417.728 574.045 418 571.286 418C567.811 418 564.795 417.46 562.243 416.376C559.737 415.239 557.668 413.695 556.036 411.746C554.399 409.797 553.173 407.494 552.357 404.843C551.591 402.134 551.208 399.186 551.208 395.99ZM578.566 391.848C578.616 388.437 577.8 385.648 576.114 383.482C574.478 381.262 572.206 380.152 569.293 380.152C567.657 380.152 566.201 380.504 564.925 381.208C563.699 381.858 562.649 382.724 561.783 383.807C560.913 384.89 560.224 386.135 559.714 387.543C559.254 388.951 558.948 390.386 558.794 391.848H578.566Z" fill="white"/>
</svg>
